<mxfile host="app.diagrams.net" modified="2024-03-28T10:31:07.167Z" agent="Mozilla/5.0 (Windows NT 10.0; Win64; x64) AppleWebKit/537.36 (KHTML, like Gecko) Chrome/123.0.0.0 Safari/537.36" etag="wAvqDFT4G8zs7biF60Yd" version="24.2.0" type="device">
  <diagram name="第 1 页" id="KvUgNX5CR6hdLUqHSTG-">
    <mxGraphModel dx="1195" dy="622" grid="1" gridSize="10" guides="1" tooltips="1" connect="1" arrows="1" fold="1" page="1" pageScale="1" pageWidth="1169" pageHeight="827" math="0" shadow="0">
      <root>
        <mxCell id="0" />
        <mxCell id="1" parent="0" />
        <mxCell id="aKY2_UttIOgnXmsmqeeC-8" value="" style="edgeStyle=orthogonalEdgeStyle;rounded=0;orthogonalLoop=1;jettySize=auto;html=1;" parent="1" source="aKY2_UttIOgnXmsmqeeC-1" target="aKY2_UttIOgnXmsmqeeC-3" edge="1">
          <mxGeometry relative="1" as="geometry" />
        </mxCell>
        <mxCell id="aKY2_UttIOgnXmsmqeeC-1" value="start" style="ellipse;whiteSpace=wrap;html=1;fontSize=20;fontStyle=1" parent="1" vertex="1">
          <mxGeometry x="190" y="50" width="100" height="60" as="geometry" />
        </mxCell>
        <mxCell id="aKY2_UttIOgnXmsmqeeC-2" value="end" style="ellipse;whiteSpace=wrap;html=1;fontSize=20;fontStyle=1" parent="1" vertex="1">
          <mxGeometry x="190" y="674" width="100" height="60" as="geometry" />
        </mxCell>
        <mxCell id="aKY2_UttIOgnXmsmqeeC-7" value="" style="edgeStyle=orthogonalEdgeStyle;rounded=0;orthogonalLoop=1;jettySize=auto;html=1;" parent="1" source="aKY2_UttIOgnXmsmqeeC-3" target="aKY2_UttIOgnXmsmqeeC-5" edge="1">
          <mxGeometry relative="1" as="geometry" />
        </mxCell>
        <mxCell id="aKY2_UttIOgnXmsmqeeC-3" value="網路init" style="rounded=1;whiteSpace=wrap;html=1;fontSize=18;" parent="1" vertex="1">
          <mxGeometry x="185" y="140" width="110" height="50" as="geometry" />
        </mxCell>
        <mxCell id="aKY2_UttIOgnXmsmqeeC-4" value="選單一CH" style="rounded=1;whiteSpace=wrap;html=1;fontSize=18;" parent="1" vertex="1">
          <mxGeometry x="300" y="360" width="110" height="50" as="geometry" />
        </mxCell>
        <mxCell id="aKY2_UttIOgnXmsmqeeC-5" value="區域密度&amp;gt;Dth" style="rhombus;whiteSpace=wrap;html=1;fontSize=16;" parent="1" vertex="1">
          <mxGeometry x="170" y="230" width="140" height="80" as="geometry" />
        </mxCell>
        <mxCell id="7AeE8OtAzSq4yhBMUZy_-3" value="" style="edgeStyle=orthogonalEdgeStyle;rounded=0;orthogonalLoop=1;jettySize=auto;html=1;" parent="1" source="aKY2_UttIOgnXmsmqeeC-9" target="7AeE8OtAzSq4yhBMUZy_-2" edge="1">
          <mxGeometry relative="1" as="geometry" />
        </mxCell>
        <mxCell id="aKY2_UttIOgnXmsmqeeC-9" value="選多個CH" style="rounded=1;whiteSpace=wrap;html=1;fontSize=18;" parent="1" vertex="1">
          <mxGeometry x="65" y="310" width="110" height="50" as="geometry" />
        </mxCell>
        <mxCell id="aKY2_UttIOgnXmsmqeeC-10" value="" style="endArrow=classic;html=1;rounded=0;entryX=0.5;entryY=0;entryDx=0;entryDy=0;exitX=0;exitY=0.5;exitDx=0;exitDy=0;" parent="1" source="aKY2_UttIOgnXmsmqeeC-5" target="aKY2_UttIOgnXmsmqeeC-9" edge="1">
          <mxGeometry width="50" height="50" relative="1" as="geometry">
            <mxPoint x="670" y="420" as="sourcePoint" />
            <mxPoint x="720" y="370" as="targetPoint" />
            <Array as="points">
              <mxPoint x="120" y="270" />
            </Array>
          </mxGeometry>
        </mxCell>
        <mxCell id="aKY2_UttIOgnXmsmqeeC-15" value="" style="edgeStyle=orthogonalEdgeStyle;rounded=0;orthogonalLoop=1;jettySize=auto;html=1;" parent="1" source="aKY2_UttIOgnXmsmqeeC-13" target="aKY2_UttIOgnXmsmqeeC-2" edge="1">
          <mxGeometry relative="1" as="geometry" />
        </mxCell>
        <mxCell id="aKY2_UttIOgnXmsmqeeC-17" value="" style="edgeStyle=orthogonalEdgeStyle;rounded=0;orthogonalLoop=1;jettySize=auto;html=1;entryX=0.003;entryY=0.547;entryDx=0;entryDy=0;entryPerimeter=0;" parent="1" source="aKY2_UttIOgnXmsmqeeC-13" target="7AeE8OtAzSq4yhBMUZy_-1" edge="1">
          <mxGeometry relative="1" as="geometry">
            <mxPoint x="360" y="534" as="targetPoint" />
          </mxGeometry>
        </mxCell>
        <mxCell id="aKY2_UttIOgnXmsmqeeC-13" value="節點死亡" style="rhombus;whiteSpace=wrap;html=1;fontSize=16;" parent="1" vertex="1">
          <mxGeometry x="170" y="560" width="140" height="80" as="geometry" />
        </mxCell>
        <mxCell id="aKY2_UttIOgnXmsmqeeC-18" value="No" style="text;html=1;align=center;verticalAlign=middle;whiteSpace=wrap;rounded=0;fontSize=16;" parent="1" vertex="1">
          <mxGeometry x="300" y="572" width="60" height="30" as="geometry" />
        </mxCell>
        <mxCell id="aKY2_UttIOgnXmsmqeeC-19" value="Yes" style="text;html=1;align=center;verticalAlign=middle;whiteSpace=wrap;rounded=0;fontSize=16;" parent="1" vertex="1">
          <mxGeometry x="190" y="630" width="60" height="30" as="geometry" />
        </mxCell>
        <mxCell id="aKY2_UttIOgnXmsmqeeC-20" value="Yes" style="text;html=1;align=center;verticalAlign=middle;whiteSpace=wrap;rounded=0;fontSize=16;" parent="1" vertex="1">
          <mxGeometry x="125" y="243" width="60" height="30" as="geometry" />
        </mxCell>
        <mxCell id="aKY2_UttIOgnXmsmqeeC-21" value="No" style="text;html=1;align=center;verticalAlign=middle;whiteSpace=wrap;rounded=0;fontSize=16;" parent="1" vertex="1">
          <mxGeometry x="295" y="243" width="60" height="30" as="geometry" />
        </mxCell>
        <mxCell id="aKY2_UttIOgnXmsmqeeC-40" value="" style="endArrow=classic;html=1;rounded=0;exitX=1;exitY=0.5;exitDx=0;exitDy=0;entryX=0.5;entryY=0;entryDx=0;entryDy=0;" parent="1" source="aKY2_UttIOgnXmsmqeeC-5" target="aKY2_UttIOgnXmsmqeeC-4" edge="1">
          <mxGeometry width="50" height="50" relative="1" as="geometry">
            <mxPoint x="490" y="490" as="sourcePoint" />
            <mxPoint x="540" y="440" as="targetPoint" />
            <Array as="points">
              <mxPoint x="355" y="270" />
            </Array>
          </mxGeometry>
        </mxCell>
        <mxCell id="aKY2_UttIOgnXmsmqeeC-48" value="" style="endArrow=classic;html=1;rounded=0;exitX=0.5;exitY=1;exitDx=0;exitDy=0;entryX=0.995;entryY=0.393;entryDx=0;entryDy=0;entryPerimeter=0;" parent="1" source="aKY2_UttIOgnXmsmqeeC-4" target="7AeE8OtAzSq4yhBMUZy_-5" edge="1">
          <mxGeometry width="50" height="50" relative="1" as="geometry">
            <mxPoint x="355" y="360" as="sourcePoint" />
            <mxPoint x="295" y="505" as="targetPoint" />
            <Array as="points">
              <mxPoint x="355" y="500" />
            </Array>
          </mxGeometry>
        </mxCell>
        <mxCell id="aKY2_UttIOgnXmsmqeeC-52" value="" style="endArrow=classic;html=1;rounded=0;exitX=0.5;exitY=0;exitDx=0;exitDy=0;entryX=1.006;entryY=0.688;entryDx=0;entryDy=0;entryPerimeter=0;" parent="1" source="7AeE8OtAzSq4yhBMUZy_-1" target="7AeE8OtAzSq4yhBMUZy_-5" edge="1">
          <mxGeometry width="50" height="50" relative="1" as="geometry">
            <mxPoint x="380" y="434" as="sourcePoint" />
            <mxPoint x="295" y="433.5" as="targetPoint" />
            <Array as="points">
              <mxPoint x="415" y="514" />
            </Array>
          </mxGeometry>
        </mxCell>
        <mxCell id="7AeE8OtAzSq4yhBMUZy_-1" value="重選CH" style="rounded=1;whiteSpace=wrap;html=1;fontSize=18;" parent="1" vertex="1">
          <mxGeometry x="360" y="572" width="110" height="50" as="geometry" />
        </mxCell>
        <mxCell id="7AeE8OtAzSq4yhBMUZy_-2" value="選CH程序&lt;div&gt;(K-means)&lt;/div&gt;" style="rounded=1;whiteSpace=wrap;html=1;fontSize=18;" parent="1" vertex="1">
          <mxGeometry x="65" y="400" width="110" height="61" as="geometry" />
        </mxCell>
        <mxCell id="7AeE8OtAzSq4yhBMUZy_-4" value="" style="endArrow=classic;html=1;rounded=0;exitX=0.5;exitY=1;exitDx=0;exitDy=0;entryX=0;entryY=0.5;entryDx=0;entryDy=0;" parent="1" source="7AeE8OtAzSq4yhBMUZy_-2" edge="1">
          <mxGeometry width="50" height="50" relative="1" as="geometry">
            <mxPoint x="230" y="430" as="sourcePoint" />
            <mxPoint x="185" y="505" as="targetPoint" />
            <Array as="points">
              <mxPoint x="120" y="505" />
            </Array>
          </mxGeometry>
        </mxCell>
        <mxCell id="7AeE8OtAzSq4yhBMUZy_-6" value="" style="edgeStyle=orthogonalEdgeStyle;rounded=0;orthogonalLoop=1;jettySize=auto;html=1;entryX=0.5;entryY=0;entryDx=0;entryDy=0;" parent="1" source="7AeE8OtAzSq4yhBMUZy_-5" target="aKY2_UttIOgnXmsmqeeC-13" edge="1">
          <mxGeometry relative="1" as="geometry" />
        </mxCell>
        <mxCell id="7AeE8OtAzSq4yhBMUZy_-5" value="Routing" style="rounded=1;whiteSpace=wrap;html=1;fontSize=18;" parent="1" vertex="1">
          <mxGeometry x="185" y="480" width="110" height="50" as="geometry" />
        </mxCell>
      </root>
    </mxGraphModel>
  </diagram>
</mxfile>
